<svg
  xmlns="http://www.w3.org/2000/svg"
  fill-rule="evenodd"
  stroke-linejoin="round"
  stroke-miterlimit="2"
  clip-rule="evenodd"
  viewBox="0 0 1654 1654"
>
  <path fill="#ffffff" d="M200 500H1500V1200H200z" />
  <path
    fill="#282828"
    d="M1653.934 414.299v826.791c0 228.14-185.234 413.377-413.389 413.377H413.776c-228.154 0-413.388-185.238-413.388-413.377v-826.79c0-228.143 185.234-413.373 413.388-413.373h826.769c228.155 0 413.389 185.23 413.389 413.372Zm-826.773 413.415v-297.33c-328.187 0-594.63 266.444-594.63 594.622h297.315c0-164.07 133.221-297.292 297.315-297.292Zm0 0v297.292c328.187 0 594.63-266.444 594.63-594.622h-297.315c0 164.108-133.222 297.33-297.315 297.33Z"
  />
</svg>